<?xml version="1.0" encoding="UTF-8"?><svg id="a" xmlns="http://www.w3.org/2000/svg" viewBox="0 0 24 24"><defs><style>.b{fill:#fff;}</style></defs><path class="b" d="M21.48,22.34l-4.11-4.11c-.86,.74-1.85,1.32-2.96,1.72s-2.22,.6-3.3,.6c-2.64,0-4.87-.91-6.7-2.74-1.83-1.83-2.74-4.06-2.74-6.7s.91-4.87,2.74-6.7c1.83-1.83,4.06-2.75,6.7-2.75s4.87,.91,6.7,2.74c1.83,1.83,2.75,4.06,2.75,6.7,0,1.17-.21,2.32-.64,3.43s-.99,2.06-1.67,2.83l4.11,4.11-.86,.86Zm-10.37-2.99c2.32,0,4.27-.79,5.86-2.38,1.59-1.59,2.38-3.54,2.38-5.86s-.79-4.27-2.38-5.86-3.54-2.38-5.86-2.38-4.27,.79-5.86,2.38-2.38,3.54-2.38,5.86,.79,4.27,2.38,5.86,3.54,2.38,5.86,2.38Z"/></svg>